<svg xmlns="http://www.w3.org/2000/svg" viewBox="0 0 800 520" role="img" aria-label="Durian fruit illustration">
  <defs>
    <linearGradient id="bg" x1="0" x2="1" y1="0" y2="1">
      <stop offset="0%" stop-color="#173424"/>
      <stop offset="100%" stop-color="#0b1911"/>
    </linearGradient>
    <linearGradient id="fruit" x1="0" x2="1" y1="0" y2="1">
      <stop offset="0%" stop-color="#c2792c"/>
      <stop offset="100%" stop-color="#6d3d11"/>
    </linearGradient>
  </defs>
  <rect width="800" height="520" rx="40" fill="url(#bg)"/>
  <circle cx="165" cy="116" r="56" fill="#cbffb2" opacity="0.10"/>
  <circle cx="660" cy="95" r="72" fill="#eeffcb" opacity="0.10"/>
  <path d="M475 110C539 72 610 82 660 135" fill="none" stroke="#d8ffbf" stroke-width="10" stroke-linecap="round" opacity="0.85"/>
  <g transform="translate(120 100)">
    <ellipse cx="295" cy="260" rx="172" ry="138" fill="url(#fruit)"/>
    <ellipse cx="295" cy="260" rx="172" ry="138" fill="#fff" opacity="0.06"/>
    <path d="M200 184C245 138 310 117 373 132" fill="none" stroke="#f7dcbc" stroke-width="8" stroke-linecap="round" opacity="0.25"/>
    <path d="M222 180C279 142 337 136 391 165" fill="none" stroke="#8a5124" stroke-width="10" stroke-linecap="round" opacity="0.35"/>
    <path d="M244 117C246 166 258 220 281 263" fill="none" stroke="#8a5124" stroke-width="10" stroke-linecap="round" opacity="0.35"/>
    <path d="M343 130C355 175 366 224 363 279" fill="none" stroke="#8a5124" stroke-width="10" stroke-linecap="round" opacity="0.35"/>
    <path d="M212 234C256 206 313 198 372 211" fill="none" stroke="#f5d4a6" stroke-width="8" stroke-linecap="round" opacity="0.25"/>
    <path d="M214 298C264 275 325 271 381 289" fill="none" stroke="#f5d4a6" stroke-width="8" stroke-linecap="round" opacity="0.25"/>
    <path d="M220 210C235 277 270 319 315 343" fill="none" stroke="#7c4a17" stroke-width="8" stroke-linecap="round" opacity="0.35"/>
  </g>
  <text x="145" y="450" fill="#effff4" font-family="Segoe UI, Arial, sans-serif" font-size="32" font-weight="700">Durian • Luxury Tropical Fruit</text>
</svg>