<svg xmlns="[w3.org](http://www.w3.org/2000/svg)" viewBox="0 0 1200 800" width="1200" height="800">
  <defs>
    <radialGradient id="bgGrad" cx="50%" cy="40%" r="70%">
      <stop offset="0%" stop-color="#fffdf7"/>
      <stop offset="100%" stop-color="#f6eddc"/>
    </radialGradient>

    <radialGradient id="rambutanRed" cx="35%" cy="30%" r="70%">
      <stop offset="0%" stop-color="#ff8a7a"/>
      <stop offset="55%" stop-color="#e53935"/>
      <stop offset="100%" stop-color="#a31515"/>
    </radialGradient>

    <radialGradient id="rambutanYellow" cx="35%" cy="30%" r="70%">
      <stop offset="0%" stop-color="#fff2a8"/>
      <stop offset="55%" stop-color="#f4c542"/>
      <stop offset="100%" stop-color="#c79112"/>
    </radialGradient>

    <radialGradient id="rambutanGreen" cx="40%" cy="35%" r="70%">
      <stop offset="0%" stop-color="#d8ffc8"/>
      <stop offset="55%" stop-color="#7bc96f"/>
      <stop offset="100%" stop-color="#3d7f37"/>
    </radialGradient>

    <radialGradient id="fleshGrad" cx="40%" cy="35%" r="70%">
      <stop offset="0%" stop-color="#ffffff"/>
      <stop offset="70%" stop-color="#f2f2ea"/>
      <stop offset="100%" stop-color="#dad8cf"/>
    </radialGradient>

    <radialGradient id="seedGrad" cx="35%" cy="30%" r="70%">
      <stop offset="0%" stop-color="#9c6a3a"/>
      <stop offset="100%" stop-color="#5a3518"/>
    </radialGradient>

    <linearGradient id="leafGrad" x1="0%" y1="0%" x2="100%" y2="100%">
      <stop offset="0%" stop-color="#69b34c"/>
      <stop offset="100%" stop-color="#2f6b2d"/>
    </linearGradient>

    <linearGradient id="stemGrad" x1="0%" y1="0%" x2="0%" y2="100%">
      <stop offset="0%" stop-color="#8d5a2b"/>
      <stop offset="100%" stop-color="#5e3718"/>
    </linearGradient>

    <filter id="shadow" x="-30%" y="-30%" width="160%" height="160%">
      <feDropShadow dx="0" dy="8" stdDeviation="10" flood-color="#000000" flood-opacity="0.18"/>
    </filter>

    <g id="spikesRed">
      <g stroke="#7dbb45" stroke-width="5" stroke-linecap="round">
        <line x1="0" y1="-82" x2="0" y2="-128"/>
        <line x1="58" y1="-58" x2="88" y2="-92"/>
        <line x1="82" y1="0" x2="128" y2="0"/>
        <line x1="58" y1="58" x2="90" y2="92"/>
        <line x1="0" y1="82" x2="0" y2="128"/>
        <line x1="-58" y1="58" x2="-90" y2="92"/>
        <line x1="-82" y1="0" x2="-128" y2="0"/>
        <line x1="-58" y1="-58" x2="-90" y2="-92"/>
        <line x1="30" y1="-76" x2="45" y2="-115"/>
        <line x1="76" y1="-30" x2="114" y2="-44"/>
        <line x1="76" y1="30" x2="114" y2="44"/>
        <line x1="30" y1="76" x2="45" y2="115"/>
        <line x1="-30" y1="76" x2="-45" y2="115"/>
        <line x1="-76" y1="30" x2="-114" y2="44"/>
        <line x1="-76" y1="-30" x2="-114" y2="-44"/>
        <line x1="-30" y1="-76" x2="-45" y2="-115"/>
      </g>
      <g fill="#99d65c">
        <circle cx="0" cy="-128" r="6"/>
        <circle cx="88" cy="-92" r="6"/>
        <circle cx="128" cy="0" r="6"/>
        <circle cx="90" cy="92" r="6"/>
        <circle cx="0" cy="128" r="6"/>
        <circle cx="-90" cy="92" r="6"/>
        <circle cx="-128" cy="0" r="6"/>
        <circle cx="-90" cy="-92" r="6"/>
        <circle cx="45" cy="-115" r="5"/>
        <circle cx="114" cy="-44" r="5"/>
        <circle cx="114" cy="44" r="5"/>
        <circle cx="45" cy="115" r="5"/>
        <circle cx="-45" cy="115" r="5"/>
        <circle cx="-114" cy="44" r="5"/>
        <circle cx="-114" cy="-44" r="5"/>
        <circle cx="-45" cy="-115" r="5"/>
      </g>
      <circle cx="0" cy="0" r="82" fill="url(#rambutanRed)"/>
      <ellipse cx="-20" cy="-24" rx="26" ry="18" fill="#ffffff" opacity="0.22"/>
    </g>

    <g id="spikesYellow">
      <g stroke="#8fcf59" stroke-width="5" stroke-linecap="round">
        <line x1="0" y1="-80" x2="0" y2="-124"/>
        <line x1="56" y1="-56" x2="84" y2="-90"/>
        <line x1="80" y1="0" x2="124" y2="0"/>
        <line x1="56" y1="56" x2="84" y2="90"/>
        <line x1="0" y1="80" x2="0" y2="124"/>
        <line x1="-56" y1="56" x2="-84" y2="90"/>
        <line x1="-80" y1="0" x2="-124" y2="0"/>
        <line x1="-56" y1="-56" x2="-84" y2="-90"/>
        <line x1="28" y1="-74" x2="42" y2="-110"/>
        <line x1="74" y1="-28" x2="110" y2="-42"/>
        <line x1="74" y1="28" x2="110" y2="42"/>
        <line x1="28" y1="74" x2="42" y2="110"/>
        <line x1="-28" y1="74" x2="-42" y2="110"/>
        <line x1="-74" y1="28" x2="-110" y2="42"/>
        <line x1="-74" y1="-28" x2="-110" y2="-42"/>
        <line x1="-28" y1="-74" x2="-42" y2="-110"/>
      </g>
      <g fill="#b7eb78">
        <circle cx="0" cy="-124" r="6"/>
        <circle cx="84" cy="-90" r="6"/>
        <circle cx="124" cy="0" r="6"/>
        <circle cx="84" cy="90" r="6"/>
        <circle cx="0" cy="124" r="6"/>
        <circle cx="-84" cy="90" r="6"/>
        <circle cx="-124" cy="0" r="6"/>
        <circle cx="-84" cy="-90" r="6"/>
      </g>
      <circle cx="0" cy="0" r="80" fill="url(#rambutanYellow)"/>
      <ellipse cx="-18" cy="-22" rx="24" ry="16" fill="#ffffff" opacity="0.2"/>
    </g>

    <g id="rambutanOpen">
      <g stroke="#7dbb45" stroke-width="5" stroke-linecap="round">
        <line x1="0" y1="-82" x2="0" y2="-128"/>
        <line x1="58" y1="-58" x2="88" y2="-92"/>
        <line x1="82" y1="0" x2="128" y2="0"/>
        <line x1="58" y1="58" x2="90" y2="92"/>
        <line x1="0" y1="82" x2="0" y2="128"/>
        <line x1="-58" y1="58" x2="-90" y2="92"/>
        <line x1="-82" y1="0" x2="-128" y2="0"/>
        <line x1="-58" y1="-58" x2="-90" y2="-92"/>
      </g>
      <circle cx="0" cy="0" r="82" fill="url(#rambutanRed)"/>
      <path d="M -62 0 A 62 62 0 0 0 62 0 A 62 62 0 0 0 -62 0 Z" fill="url(#fleshGrad)"/>
      <ellipse cx="10" cy="8" rx="26" ry="40" fill="url(#seedGrad)" transform="rotate(18 10 8)"/>
      <ellipse cx="-18" cy="-18" rx="22" ry="14" fill="#ffffff" opacity="0.25"/>
    </g>
  </defs>

  <rect width="1200" height="800" fill="url(#bgGrad)"/>

  <ellipse cx="620" cy="690" rx="320" ry="72" fill="#000000" opacity="0.08"/>

  <path d="M 370 285 C 465 220, 565 215, 650 252" fill="none" stroke="url(#stemGrad)" stroke-width="12" stroke-linecap="round"/>
  <path d="M 640 252 C 760 215, 880 245, 950 320" fill="none" stroke="url(#stemGrad)" stroke-width="10" stroke-linecap="round"/>

  <path d="M 520 212 C 470 170, 405 176, 365 225 C 430 252, 494 248, 520 212 Z" fill="url(#leafGrad)" opacity="0.95"/>
  <path d="M 808 248 C 872 220, 936 245, 970 298 C 904 306, 845 292, 808 248 Z" fill="url(#leafGrad)" opacity="0.95"/>
  <path d="M 690 210 C 735 160, 806 150, 868 186 C 808 226, 742 232, 690 210 Z" fill="url(#leafGrad)" opacity="0.9"/>

  <g transform="translate(420 430) rotate(-10)" filter="url(#shadow)">
    <use href="#spikesRed"/>
  </g>

  <g transform="translate(610 400) rotate(8)" filter="url(#shadow)">
    <use href="#spikesYellow"/>
  </g>

  <g transform="translate(805 470) rotate(14)" filter="url(#shadow)">
    <use href="#spikesRed"/>
  </g>

  <g transform="translate(620 545) rotate(-6)" filter="url(#shadow)">
    <use href="#rambutanOpen"/>
  </g>

  <g opacity="0.18">
    <circle cx="170" cy="130" r="3" fill="#ffffff"/>
    <circle cx="230" cy="95" r="2" fill="#ffffff"/>
    <circle cx="1030" cy="140" r="3" fill="#ffffff"/>
    <circle cx="980" cy="100" r="2" fill="#ffffff"/>
    <circle cx="1080" cy="210" r="2" fill="#ffffff"/>
  </g>
</svg>

